<svg xmlns="http://www.w3.org/2000/svg" version="1.1" xmlns:xlink="http://www.w3.org/1999/xlink" xmlns:svgjs="http://svgjs.dev/svgjs" width="1000" height="1000"><style>
    #light-icon {
      display: inline;
    }
    #dark-icon {
      display: none;
    }

    @media (prefers-color-scheme: dark) {
      #light-icon {
        display: none;
      }
      #dark-icon {
        display: inline;
      }
    }
  </style><g id="light-icon"><svg xmlns="http://www.w3.org/2000/svg" version="1.1" xmlns:xlink="http://www.w3.org/1999/xlink" xmlns:svgjs="http://svgjs.dev/svgjs" width="1000" height="1000"><g clip-path="url(#SvgjsClipPath1057)"><rect width="1000" height="1000" fill="#ffffff"></rect><g transform="matrix(1.09375,0,0,1.09375,150,220)"><svg xmlns="http://www.w3.org/2000/svg" version="1.1" xmlns:xlink="http://www.w3.org/1999/xlink" xmlns:svgjs="http://svgjs.dev/svgjs" width="640" height="512"><svg xmlns="http://www.w3.org/2000/svg" viewBox="0 0 640 512"><!--!Font Awesome Free 6.7.2 by @fontawesome - https://fontawesome.com License - https://fontawesome.com/license/free Copyright 2025 Fonticons, Inc.--><path fill="#5856d6" d="M64 64l0 288 512 0 0-288L64 64zM0 64C0 28.7 28.7 0 64 0L576 0c35.3 0 64 28.7 64 64l0 288c0 35.3-28.7 64-64 64L64 416c-35.3 0-64-28.7-64-64L0 64zM128 448l384 0c17.7 0 32 14.3 32 32s-14.3 32-32 32l-384 0c-17.7 0-32-14.3-32-32s14.3-32 32-32z"></path></svg></svg></g></g><defs><clipPath id="SvgjsClipPath1057"><rect width="1000" height="1000" x="0" y="0" rx="500" ry="500"></rect></clipPath></defs></svg></g><g id="dark-icon"><svg xmlns="http://www.w3.org/2000/svg" version="1.1" xmlns:xlink="http://www.w3.org/1999/xlink" xmlns:svgjs="http://svgjs.dev/svgjs" width="1000" height="1000"><g><g transform="matrix(1.5625,0,0,1.5625,0,100)"><svg xmlns="http://www.w3.org/2000/svg" version="1.1" xmlns:xlink="http://www.w3.org/1999/xlink" xmlns:svgjs="http://svgjs.dev/svgjs" width="640" height="512"><svg xmlns="http://www.w3.org/2000/svg" viewBox="0 0 640 512"><!--!Font Awesome Free 6.7.2 by @fontawesome - https://fontawesome.com License - https://fontawesome.com/license/free Copyright 2025 Fonticons, Inc.--><path fill="#5856d6" d="M64 64l0 288 512 0 0-288L64 64zM0 64C0 28.7 28.7 0 64 0L576 0c35.3 0 64 28.7 64 64l0 288c0 35.3-28.7 64-64 64L64 416c-35.3 0-64-28.7-64-64L0 64zM128 448l384 0c17.7 0 32 14.3 32 32s-14.3 32-32 32l-384 0c-17.7 0-32-14.3-32-32s14.3-32 32-32z"></path></svg></svg></g></g></svg></g></svg>